<svg xmlns="http://www.w3.org/2000/svg" xmlns:xlink="http://www.w3.org/1999/xlink" version="1.1" x="0px" y="0px" viewBox="0 0 90 90" enable-background="new 0 0 90 90" xml:space="preserve"><polygon fill="#000000" points="210.055,395.395 207.448,434.809 232.893,436.492 232.959,435.493 235.5,397.077 "></polygon><polygon fill="#000000" points="218.416,395.842 203.876,432.568 227.585,441.955 227.954,441.025 242.125,405.229 "></polygon><polygon fill="#000000" points="212.896,394.438 206.7,433.449 231.883,437.449 232.04,436.461 238.08,398.438 "></polygon><rect x="207.559" y="397.729" fill="#000000" stroke="#1D1D1B" stroke-width="2" stroke-miterlimit="10" width="23.5" height="37.5"></rect><line fill="#000000" stroke="#1D1D1B" stroke-miterlimit="10" x1="217.001" y1="432.031" x2="217.001" y2="420.513"></line><line fill="#000000" stroke="#1D1D1B" stroke-miterlimit="10" x1="223.001" y1="432.031" x2="223.001" y2="401.644"></line><line fill="#000000" stroke="#1D1D1B" stroke-miterlimit="10" x1="225.876" y1="432.031" x2="225.876" y2="401.644"></line><polygon fill="#000000" points="210.275,428.322 212.417,427.085 214.559,428.322 214.559,430.795 212.417,432.031 210.275,430.795   "></polygon><text transform="matrix(0 -1 1 0 213.5005 430.2695)" fill="#000000" font-family="'Futura-CondensedMedium'" font-size="3.4893">A</text><path d="M66.542,35.892c0.084-0.06,0.155-0.13,0.206-0.214c0.197-0.348-0.046-0.822-0.569-1.045  c-3.334-1.4-7.097-1.973-10.974-1.504c-0.604,0.07-0.996,0.623-0.861,1.201H35.605c0.134-0.578-0.257-1.131-0.863-1.201  c-3.875-0.469-7.638,0.104-10.973,1.504c-0.522,0.223-0.767,0.697-0.567,1.045c0.055,0.092,0.136,0.168,0.23,0.229  c-3.331,1.979-5.563,5.612-5.563,9.767c0,6.273,5.084,11.358,11.357,11.358c2.664,0,5.108-0.918,7.044-2.449h17.455  c1.937,1.531,4.384,2.449,7.046,2.449c6.272,0,11.358-5.085,11.358-11.358C72.13,41.508,69.887,37.867,66.542,35.892z   M33.972,47.175h-3.088v3.089h-3v-3.089h-3.09v-3.001h3.09v-3.089h3v3.089h3.088V47.175z M41.545,47.162l-2.087,1.577  c-0.311,0.235-0.757,0.174-0.991-0.138c-0.236-0.312-0.175-0.757,0.138-0.992l2.087-1.576c0.312-0.236,0.755-0.174,0.992,0.138  C41.92,46.483,41.859,46.927,41.545,47.162z M47.43,47.162l-2.087,1.577c-0.313,0.235-0.757,0.174-0.993-0.138  c-0.236-0.312-0.172-0.757,0.138-0.992l2.087-1.576c0.312-0.236,0.757-0.174,0.992,0.138C47.802,46.483,47.741,46.927,47.43,47.162z   M55.757,47.441c-1.105,0-2.002-0.897-2.002-2.003c0-1.106,0.897-2.002,2.002-2.002c1.107,0,2.003,0.896,2.003,2.002  C57.76,46.544,56.864,47.441,55.757,47.441z M60.935,51.519c-1.105,0-2.003-0.897-2.003-2.003c0-1.106,0.898-2.002,2.003-2.002  s2,0.896,2,2.002C62.936,50.621,62.04,51.519,60.935,51.519z M60.947,43.437c-1.107,0-2.003-0.897-2.003-2.002  c0-1.106,0.896-2.003,2.003-2.003c1.105,0,2.001,0.896,2.001,2.003C62.948,42.539,62.052,43.437,60.947,43.437z M66.124,47.514  c-1.106,0-2.002-0.897-2.002-2.003s0.896-2.002,2.002-2.002c1.104,0,2.002,0.896,2.002,2.002S67.229,47.514,66.124,47.514z"></path></svg>